<?xml version="1.0" encoding="utf-8"?>
<!-- Generator: Adobe Illustrator 19.0.0, SVG Export Plug-In . SVG Version: 6.00 Build 0)  -->
<svg version="1.1" id="Layer_1" xmlns="http://www.w3.org/2000/svg" xmlns:xlink="http://www.w3.org/1999/xlink" x="0px" y="0px"
	 viewBox="-294 386 22 22" style="enable-background:new -294 386 22 22;" xml:space="preserve">
<style type="text/css">
	.st0{fill:#ffffff;}
</style>
<path class="st0" d="M-272.3,390.1c0-0.5-0.1-1-0.3-1.4c-0.2-0.5-0.5-0.9-0.8-1.2c-0.7-0.7-1.7-1.1-2.7-1.1c-1,0-1.9,0.4-2.7,1.1
	l-8.8,8.8h-0.3c-1.5,0-2.9,0.7-4,1.7c-1.1,1.1-1.7,2.5-1.7,4l-0.1,4.3c0,0.2,0,0.4,0.1,0.5c0.1,0.2,0.2,0.3,0.3,0.4
	c0.3,0.2,0.6,0.4,0.9,0.4l4.3-0.1c1.5,0,2.9-0.7,4-1.7c1.1-1.1,1.7-2.5,1.7-4v-0.3l8.8-8.8c0.4-0.3,0.6-0.8,0.8-1.2
	C-272.4,391.1-272.3,390.6-272.3,390.1z M-288,404.9l-3,0.1v-3c0-0.8,0.4-1.6,1-2.2c0.6-0.6,1.4-0.9,2.2-0.9c0.4,0,0.8,0.1,1.1,0.2
	c0.4,0.1,0.7,0.4,0.9,0.6c0.3,0.3,0.5,0.6,0.6,0.9c0.1,0.4,0.2,0.7,0.2,1.1c0,0.8-0.3,1.6-0.9,2.2
	C-286.4,404.5-287.2,404.9-288,404.9z M-275.3,390.9l-7.8,7.8c-0.2-0.3-0.4-0.6-0.7-0.9c-0.3-0.3-0.5-0.5-0.9-0.7l7.8-7.8
	c0.2-0.2,0.5-0.3,0.8-0.3c0.3,0,0.6,0.1,0.8,0.3c0.1,0.1,0.2,0.2,0.2,0.4s0.1,0.3,0.1,0.4c0,0.1,0,0.3-0.1,0.4
	C-275.1,390.6-275.2,390.8-275.3,390.9z"/>
</svg>
